<svg xmlns="http://www.w3.org/2000/svg" width="1024" height="1280" fill="none" viewBox="0 0 1024 1280">
  <rect width="1024" height="1280" fill="#000" rx="80"/>
  <path fill="#24CB71" d="M312 840c0-55.228 44.772-100 100-100h100v100c0 55.228-44.772 100-100 100s-100-44.772-100-100Z"/>
  <path fill="#FF7237" d="M512 340v200h100c55.228 0 100-44.772 100-100s-44.772-100-100-100H512Z"/>
  <path fill="#00B6FF" d="M611.167 740c55.228 0 100-44.772 100-100s-44.772-100-100-100-100 44.772-100 100 44.772 100 100 100Z"/>
  <path fill="#FF3737" d="M312 440c0 55.228 44.772 100 100 100h100V340H412c-55.228 0-100 44.772-100 100Z"/>
  <path fill="#874FFF" d="M312 640c0 55.228 44.772 100 100 100h100V540H412c-55.228 0-100 44.772-100 100Z"/>
</svg>
